<?xml version="1.0" encoding="UTF-8" standalone="no"?>
<!-- Created with Inkscape (http://www.inkscape.org/) -->

<svg
   width="31.886683mm"
   height="28.71936mm"
   viewBox="0 0 31.886683 28.71936"
   version="1.1"
   id="svg5"
   xml:space="preserve"
   xmlns:xlink="http://www.w3.org/1999/xlink"
   xmlns="http://www.w3.org/2000/svg"
   xmlns:svg="http://www.w3.org/2000/svg"><defs
     id="defs2"><linearGradient
       id="linearGradient84498"><stop
         style="stop-color:#ffd700;stop-opacity:1"
         offset="0"
         id="stop84494" /><stop
         style="stop-color:#000000;stop-opacity:1"
         offset="1"
         id="stop84496" /></linearGradient><linearGradient
       id="linearGradient61925"><stop
         style="stop-color:#000000;stop-opacity:1;"
         offset="0"
         id="stop61921" /><stop
         style="stop-color:#ffd700;stop-opacity:1"
         offset="1"
         id="stop61923" /></linearGradient><filter
       style="color-interpolation-filters:sRGB"
       id="filter53293"
       x="-0.032263489"
       y="-0.037487795"
       width="1.064527"
       height="1.0749756"><feGaussianBlur
         stdDeviation="0.33512324"
         id="feGaussianBlur53295" /></filter><filter
       style="color-interpolation-filters:sRGB"
       id="filter93825"
       x="-0.020805966"
       y="-0.027048316"
       width="1.0416119"
       height="1.0540966"><feGaussianBlur
         stdDeviation="0.23712109"
         id="feGaussianBlur93827" /></filter><linearGradient
       xlink:href="#linearGradient61925"
       id="linearGradient154041"
       gradientUnits="userSpaceOnUse"
       gradientTransform="matrix(0.77054304,0,0,0.77054304,159.76505,-159.35139)"
       x1="113.82136"
       y1="288.11407"
       x2="119.96909"
       y2="276.58655" /><linearGradient
       xlink:href="#linearGradient84498"
       id="linearGradient154043"
       gradientUnits="userSpaceOnUse"
       gradientTransform="matrix(0.20387284,0,0,0.20387284,160.61723,-159.30108)"
       x1="461.14572"
       y1="1036.1208"
       x2="446.76617"
       y2="1105.9473" /><filter
       style="color-interpolation-filters:sRGB"
       id="filter154644"
       x="-0.055724932"
       y="-0.050383911"
       width="1.1114499"
       height="1.1007678"><feGaussianBlur
         stdDeviation="2.2771576"
         id="feGaussianBlur154646" /></filter><filter
       style="color-interpolation-filters:sRGB"
       id="filter154829"
       x="-0.10667042"
       y="-0.084147932"
       width="1.2133408"
       height="1.1682959"><feGaussianBlur
         stdDeviation="0.96298503"
         id="feGaussianBlur154831" /></filter></defs><g
     id="layer1"
     transform="translate(-233.52841,-43.119097)"><g
       id="g1"><path
         id="path66124"
         style="fill:#000000;stroke-width:13.5236;filter:url(#filter154644)"
         d="m 6279.4277,1861.3633 c 8e-4,0 0,0 0,0.01 v 0 z m 4.8828,10.1719 -8.0293,6.7304 c 3.3909,7.0707 7.2607,15.1673 13.0879,27.4453 11.5575,24.0867 20.0391,41.7231 25.9473,53.959 h -47.2988 l -26.5918,-52.1953 -7.9824,6.6895 28.3574,55.6699 h 69.7168 l -6.2871,-12.9375 c -5.9006,-12.2149 -14.8174,-30.7542 -26.7168,-55.5527 v -0.031 c -6.3397,-13.3581 -10.549,-22.1593 -14.2032,-29.7773 z"
         transform="matrix(0.07538158,0,0,0.07538158,-216.35471,-77.528998)" /><path
         id="path66127"
         style="fill:#000000;stroke-width:1.323;filter:url(#filter93825)"
         d="m 182.11563,356.53013 -0.13953,0.12142 -2.40347,2.08412 -4.56613,3.95997 -1.17047,1.01491 -0.10594,0.092 -2.78329,2.41379 -2.21692,1.92289 -1.26814,1.09968 -0.75706,3.34965 -2.78329,2.41383 v 0 l -0.3328,0.27905 -0.66714,0.55862 -0.39067,1.72963 0.66972,-0.57105 0.33435,-0.28472 0.0233,-0.0201 0.23099,-0.19687 0.001,-0.004 2.52801,-2.19262 -0.60978,2.69853 -0.12919,0.57105 0.66972,-0.57105 1.17151,-0.99218 h -0.0109 l 4.33255,-3.69279 1.26143,-1.03611 1.30224,-1.14927 0.7767,-0.66252 h -5.3e-4 l 1.81901,-1.54977 2.38693,-2.03502 10.59522,-9.35032 z m 0.37103,0.99322 h 4.7718 l -9.19065,8.11318 0.002,0.003 h -0.002 l -3.45922,2.89954 -2.53111,2.12029 -4.82709,4.05506 1.11207,-4.94131 4.98574,-4.32429 0.79582,-0.69038 z"
         transform="matrix(0.77054304,0,0,0.77054304,118.66352,-219.53392)" /><path
         id="path66121"
         style="color:#000000;-inkscape-font-specification:'Montserrat Bold';fill:#000000;stroke-width:0.536833;-inkscape-stroke:none;filter:url(#filter154829)"
         d="m 1941.2532,222.19599 1.2614,-5.43335 c -2.3867,-1.4224 -2.3302,-2.40539 -6.9642,-3.8176 -2.1156,-0.64473 -4.7336,-0.63868 -7.6646,-0.24963 l -0.9195,0.12063 -6.1181,27.07657 3.4297,-2.97459 4.8619,-21.60445 c 2.2224,-0.19986 4.2083,-0.099 5.8423,0.25477 1.8928,0.40996 3.3911,1.8921 4.4719,2.50593 l -1.6525,7.11617 c 0,-1.4e-4 3.4517,-2.99445 3.4517,-2.99445 z"
         transform="matrix(0.28490675,0,0,0.28490675,-302.43353,-2.1725841)" /><path
         style="color:#000000;fill:#000000;stroke-width:0.750212;-inkscape-stroke:none;filter:url(#filter53293)"
         d="m 152.92932,341.737 -0.19342,1.51507 -1.71874,13.40419 c -0.11784,0.91877 0.0353,2.15339 0.62859,2.9818 1.1613,1.62149 2.91833,2.90087 4.98775,3.36716 2.06941,0.46629 4.44517,0.0952 6.74752,-1.52533 l -0.0234,0.0161 c 3.06186,-1.89844 5.32146,-1.99836 6.82224,-1.67333 1.50078,0.32504 2.21694,1.05792 2.21694,1.05792 l 0.6198,0.62127 2.75615,-11.01435 c 0.43668,-1.74561 -0.1494,-3.76836 -2.11583,-4.78992 l -0.004,-0.003 -0.003,-0.002 c -2.79028,-1.38929 -5.5213,-0.68134 -7.85818,0.34726 -2.33689,1.0286 -4.40383,2.33971 -5.77751,2.42794 -1.52093,0.0977 -3.13777,-1.17439 -4.35182,-2.5686 -1.21407,-1.39422 -1.99862,-2.82355 -1.99862,-2.82355 z m 0.63006,2.89974 c 0.35136,0.5694 0.5267,0.96514 1.35391,1.9151 1.2955,1.48774 3.08795,3.04046 5.16504,2.90707 1.871,-0.12016 3.87851,-1.52644 6.11305,-2.50999 2.23278,-0.98277 4.5692,-1.58164 7.00979,-0.36924 1.57641,0.82001 1.95688,2.27491 1.60886,3.66607 l -2.36347,9.44652 c -0.4582,-0.29538 -1.12492,-0.63768 -2.05721,-0.83959 -1.75104,-0.37924 -4.31759,-0.20787 -7.55488,1.79933 l -0.0132,0.009 -0.0117,0.008 c -2.10095,1.47881 -4.15209,1.77541 -5.95774,1.36856 -1.80564,-0.40686 -3.37162,-1.54126 -4.40017,-2.97741 -0.31875,-0.44505 -0.53298,-1.64012 -0.4513,-2.27701 z"
         id="path66133"
         transform="matrix(0.77054304,0,0,0.77054304,117.81133,-219.58423)" /><path
         id="path66136"
         style="color:#000000;fill:#000000;stroke-width:0.764741;-inkscape-stroke:none"
         d="m 236.13556,45.973098 -1.20148,9.358794 c -0.0629,0.490743 0.10211,1.411787 0.34773,1.754718 0.79252,1.106615 1.99921,1.98072 3.39053,2.294223 1.39134,0.313494 2.97195,0.08498 4.59084,-1.054511 l 0.009,-0.0062 0.0103,-0.0069 c 2.49447,-1.546633 4.47207,-1.678898 5.8213,-1.386684 0.71837,0.155588 1.23228,0.419446 1.58534,0.647041 l 1.82104,-7.27906 c 0.26815,-1.071956 -0.0251,-2.19291 -1.23972,-2.824762 -1.88058,-0.934201 -3.68082,-0.472883 -5.40126,0.284391 -1.72181,0.757861 -3.26865,1.84166 -4.71034,1.934246 -1.60046,0.102792 -2.98169,-1.093777 -3.97992,-2.240145 -0.63742,-0.731976 -0.77243,-1.036966 -1.04315,-1.475706 z" /><path
         id="path66145"
         style="color:#000000;-inkscape-font-specification:'Montserrat Bold';fill:url(#linearGradient154041);fill-opacity:1;stroke:none;stroke-width:0.764787;stroke-opacity:1;-inkscape-stroke:none"
         d="m 249.6592,61.985653 0.47078,-2.027454 c -0.30793,-0.174881 -0.73478,-0.596862 -1.27408,-0.71366 -0.29094,-0.06303 -0.62124,-0.09789 -0.9825,-0.101264 -0.21676,-0.0023 -0.44454,0.0077 -0.68198,0.02866 l -1.38519,6.154957 2.14484,-1.859865 c 3e-5,6e-5 1.70813,-1.481378 1.70813,-1.481378 z" /><path
         id="path66148"
         style="fill:url(#linearGradient154043);fill-opacity:1;stroke-width:1.01943"
         d="m 259.27728,55.953222 -10.88321,9.439041 -0.85689,3.807508 c 5.27767,-4.242077 10.27668,-8.829887 15.41699,-13.246549 z m -2.5163,8.104554 -2.62672,2.201233 2.00497,3.935001 h 3.5653 z" /><path
         style="color:#000000;fill:#ffffff;stroke-width:0.57807;-inkscape-stroke:none"
         d="m 235.64996,43.738831 -0.14903,1.167428 -1.32436,10.328505 c -0.0908,0.707951 0.0271,1.65928 0.48434,2.297605 0.89483,1.249427 2.24871,2.235245 3.84328,2.59454 1.59456,0.359299 3.4252,0.07336 5.19926,-1.175331 l -0.018,0.01239 c 2.35929,-1.462828 4.10041,-1.539821 5.25682,-1.289371 1.15643,0.250456 1.70827,0.815173 1.70827,0.815173 l 0.47756,0.478714 2.12375,-8.48703 c 0.33647,-1.345068 -0.11513,-2.903684 -1.63035,-3.690839 l -0.003,-0.0023 -0.003,-0.0014 c -2.15005,-1.070508 -4.2544,-0.525003 -6.05507,0.267579 -1.8007,0.792579 -3.39335,1.802847 -4.45184,1.870832 -1.17193,0.07528 -2.41777,-0.904918 -3.35327,-1.979219 -0.93549,-1.074306 -1.54,-2.175665 -1.54,-2.175665 z m 0.48548,2.234376 c 0.27075,0.438747 0.40585,0.74368 1.04325,1.475665 0.99825,1.146368 2.3794,2.342806 3.97989,2.240023 1.44168,-0.09259 2.98856,-1.176186 4.71036,-1.934055 1.72047,-0.757265 3.52076,-1.21872 5.40135,-0.284514 1.2147,0.631852 1.50787,1.752914 1.23968,2.824865 l -1.82115,7.278948 c -0.35305,-0.227603 -0.8668,-0.491358 -1.58516,-0.64694 -1.34926,-0.292221 -3.32689,-0.160172 -5.82136,1.386461 l -0.0103,0.0069 -0.009,0.0062 c -1.6189,1.139487 -3.19939,1.368031 -4.59071,1.054533 -1.39131,-0.313502 -2.59797,-1.187608 -3.39053,-2.294223 -0.24559,-0.342928 -0.41066,-1.263783 -0.34773,-1.754532 z"
         id="path66139" /><path
         id="path66142"
         style="color:#000000;-inkscape-font-specification:'Montserrat Bold';fill:#ffffff;stroke-width:0.152947;-inkscape-stroke:none"
         d="m 250.64261,61.132553 0.35938,-1.547998 c -0.67999,-0.405251 -0.66389,-0.685312 -1.98415,-1.08766 -0.60274,-0.183688 -1.34863,-0.181964 -2.18369,-0.07112 l -0.26197,0.03437 -1.74309,7.714298 0.97714,-0.847481 1.38519,-6.155254 c 0.63318,-0.05694 1.19897,-0.0282 1.66451,0.07259 0.53927,0.116801 0.96615,0.539072 1.27408,0.713957 l -0.47081,2.027444 c 0,-3.9e-5 0.98341,-0.853139 0.98341,-0.853139 z" /><path
         id="path66151"
         style="fill:#ffffff;stroke-width:1.01943"
         d="m 258.99146,55.187891 -0.10752,0.09356 -1.85198,1.605902 -3.5184,3.051329 -0.9019,0.782032 -0.0816,0.07089 -2.14463,1.859929 -1.70825,1.481669 -0.97714,0.847352 -0.58335,2.58105 -2.14466,1.85996 v 0 l -0.25642,0.215019 -0.51408,0.43044 -0.30101,1.332754 0.51602,-0.440019 0.25765,-0.219386 0.0179,-0.0155 0.17801,-0.151696 v -0.0031 l 1.94794,-1.689509 -0.46987,2.079335 -0.0995,0.440019 0.51605,-0.440019 0.9027,-0.764518 h -0.008 l 3.33843,-2.845452 0.97198,-0.798369 1.00342,-0.885561 0.5985,-0.510499 v 0 l 1.40163,-1.194167 1.83924,-1.56807 8.16406,-7.204824 z m 0.28588,0.76532 h 3.67689 l -7.08179,6.251555 0.003,0.0023 h -0.003 l -2.6655,2.234222 -1.95033,1.633775 -3.71945,3.124598 0.85688,-3.807494 3.84174,-3.33205 0.6132,-0.531967 z" /><path
         id="path66130"
         style="fill:#ffffff;stroke-width:1.01943"
         d="m 256.99845,62.783503 c 6e-5,0 0,0 0,8.54e-4 v 0 z m 0.36807,0.766775 -0.60525,0.507347 c 0.25562,0.533001 0.54733,1.143334 0.98657,2.068871 0.87125,1.815693 1.51058,3.145151 1.95597,4.067514 h -3.56546 l -2.00455,-3.934565 -0.60172,0.504265 2.13762,4.196485 h 5.25537 l -0.47392,-0.97525 c -0.44479,-0.920779 -1.11698,-2.3183 -2.01398,-4.18765 v -0.0023 c -0.47787,-1.006954 -0.7952,-1.670402 -1.07065,-2.24466 z" /></g></g></svg>
